<svg width="42" height="39" viewBox="0 0 42 39" fill="none" xmlns="http://www.w3.org/2000/svg">
<path d="M41.1325 19.4949C41.1325 30.2626 31.9889 38.9907 20.7095 38.9907C9.42947 38.9907 0.285706 30.2626 0.285706 19.4949C0.285706 8.72819 9.42947 6.10352e-05 20.7095 6.10352e-05C31.9889 6.10352e-05 41.1325 8.72819 41.1325 19.4949Z" fill="url(#paint0_linear)"/>
<path d="M16.3781 26.6213L16.7808 26.8505C18.2572 27.6907 19.937 28.1344 21.637 28.1344C26.8835 28.1344 31.1508 24.0598 31.1508 19.0536C31.1508 14.0458 26.8835 9.97131 21.637 9.97131C16.3918 9.97131 12.1238 14.0458 12.1238 19.0536C12.1238 20.7073 12.6044 22.3349 13.5151 23.762L13.7618 24.1484L12.8113 27.5344L16.3781 26.6213ZM9.67499 30.5276L11.3773 24.4625C10.4138 22.802 9.9063 20.9416 9.9063 19.0536C9.9063 12.8792 15.169 7.85572 21.637 7.85572C28.1057 7.85572 33.3689 12.8792 33.3689 19.0536C33.3689 25.2281 28.1057 30.2516 21.637 30.2516C19.6954 30.2516 17.7777 29.7823 16.0611 28.8943L9.67499 30.5276Z" fill="white"/>
<path fill-rule="evenodd" clip-rule="evenodd" d="M26.0007 20.611C25.5188 20.335 24.8902 20.0277 24.3217 20.249C23.8845 20.4193 23.6065 21.0719 23.323 21.4053C23.1777 21.5755 23.0045 21.6017 22.7824 21.5173C21.1439 20.8933 19.8882 19.849 18.9851 18.4115C18.8319 18.1875 18.8597 18.0121 19.0431 17.8047C19.3169 17.4974 19.6591 17.1485 19.7345 16.7359C19.8072 16.3219 19.6046 15.8386 19.4244 15.4703C19.1967 14.999 18.941 14.3282 18.4472 14.0615C17.9927 13.8167 17.3946 13.9547 16.9903 14.2683C16.2925 14.8115 15.9553 15.6615 15.9651 16.5042C15.9684 16.7438 15.9989 16.9834 16.0578 17.2135C16.1986 17.7698 16.4676 18.2891 16.7705 18.7829C16.999 19.1553 17.2473 19.5157 17.5153 19.8635C18.3909 20.999 19.4817 21.9859 20.743 22.7241C21.3744 23.0927 22.0533 23.4167 22.7573 23.6381C23.5465 23.887 24.2491 24.1459 25.0997 23.9911C25.9923 23.8298 26.8709 23.3037 27.2257 22.4834C27.3305 22.2397 27.3835 21.9687 27.3249 21.7126C27.2033 21.1823 26.4505 20.8673 26.0007 20.611Z" fill="white"/>
<defs>
<linearGradient id="paint0_linear" x1="35.1513" y1="5.71019" x2="7.61071" y2="34.5622" gradientUnits="userSpaceOnUse">
<stop stop-color="#3CBA64"/>
<stop offset="1" stop-color="#24B263"/>
</linearGradient>
</defs>
</svg>
