<svg width="39" height="39" viewBox="0 0 39 39" fill="none" xmlns="http://www.w3.org/2000/svg">
<path d="M38.9902 19.4961C38.9902 8.72941 30.2615 8.39233e-05 19.4948 8.39233e-05C8.72813 8.39233e-05 0 8.72941 0 19.4961C0 29.2267 7.12865 37.2921 16.449 38.7534V25.1321H11.4984V19.4961H16.449V15.2001C16.449 10.3148 19.3594 7.61608 23.8126 7.61608C25.9454 7.61608 28.176 7.99741 28.176 7.99741V12.7947H25.7178C23.2959 12.7947 22.5407 14.2974 22.5407 15.8388V19.4961H27.9479L27.0839 25.1321H22.5407V38.7534C31.861 37.2921 38.9902 29.2267 38.9902 19.4961Z" fill="url(#paint0_linear)"/>
<path d="M27.0839 25.1321L27.9479 19.4961H22.5407V15.8387C22.5407 14.2974 23.2959 12.7947 25.7177 12.7947H28.176V7.99739C28.176 7.99739 25.9453 7.61606 23.8125 7.61606C19.3593 7.61606 16.4489 10.3147 16.4489 15.2001V19.4961H11.4984V25.1321H16.4489V38.7534C17.4411 38.9094 18.4588 38.9907 19.4948 38.9907C20.5312 38.9907 21.5484 38.9094 22.5407 38.7534V25.1321H27.0839Z" fill="white"/>
<defs>
<linearGradient id="paint0_linear" x1="5.70979" y1="5.71075" x2="33.2801" y2="33.281" gradientUnits="userSpaceOnUse">
<stop stop-color="#3F6ABC"/>
<stop offset="1" stop-color="#2D368C"/>
</linearGradient>
</defs>
</svg>
