<svg width="41" height="39" viewBox="0 0 41 39" fill="none" xmlns="http://www.w3.org/2000/svg">
<path d="M41 19.4995C41 30.2698 31.8225 39 20.5003 39C9.17861 39 0 30.2698 0 19.4995C0 8.73022 9.17861 -1.58814e-06 20.5003 -1.58814e-06C31.8225 -1.58814e-06 41 8.73022 41 19.4995Z" fill="url(#paint0_linear)"/>
<path fill-rule="evenodd" clip-rule="evenodd" d="M20.5 8C13.8204 8 8.41028 13.2764 8.41028 19.7909C8.41028 25.0083 11.871 29.4152 16.6766 30.9775C17.2811 31.0806 17.5078 30.7269 17.5078 30.4174C17.5078 30.1374 17.4927 29.2088 17.4927 28.2214C14.4552 28.7667 13.6693 27.4992 13.4275 26.8359C13.2915 26.4969 12.7021 25.4505 12.1883 25.1705C11.7652 24.9494 11.1607 24.4041 12.1732 24.3893C13.1253 24.3746 13.8053 25.2442 14.032 25.5979C15.1201 27.3813 16.858 26.8801 17.5531 26.5706C17.6589 25.8042 17.9763 25.2884 18.3239 24.9936C15.6339 24.6988 12.823 23.6819 12.823 19.1719C12.823 17.8896 13.2915 16.8284 14.0622 16.0031C13.9413 15.7083 13.5182 14.4997 14.1831 12.8785C14.1831 12.8785 15.1956 12.569 17.5078 14.087C18.475 13.8217 19.5026 13.6891 20.5302 13.6891C21.5579 13.6891 22.5855 13.8217 23.5527 14.087C25.8648 12.5542 26.8774 12.8785 26.8774 12.8785C27.5423 14.4997 27.1192 15.7083 26.9983 16.0031C27.769 16.8284 28.2375 17.8749 28.2375 19.1719C28.2375 23.6966 25.4115 24.6988 22.7215 24.9936C23.1598 25.3621 23.5376 26.0695 23.5376 27.1749C23.5376 28.7519 23.5225 30.0195 23.5225 30.4174C23.5225 30.7269 23.7491 31.0954 24.3536 30.9775C26.7537 30.1873 28.8392 28.6829 30.3166 26.6762C31.7941 24.6695 32.5891 22.2614 32.5898 19.7909C32.5898 13.2764 27.1796 8 20.5 8Z" fill="white"/>
<defs>
<linearGradient id="paint0_linear" x1="6.00496" y1="5.71089" x2="33.5485" y2="34.6659" gradientUnits="userSpaceOnUse">
<stop stop-color="#1B1B3F"/>
<stop offset="1" stop-color="#040606"/>
</linearGradient>
</defs>
</svg>
