<svg width="42" height="39" viewBox="0 0 42 39" fill="none" xmlns="http://www.w3.org/2000/svg">
<path d="M41.1325 19.4946C41.1325 30.2613 31.9893 38.9893 20.7094 38.9893C9.43002 38.9893 0.285706 30.2613 0.285706 19.4946C0.285706 8.7266 9.43002 -7.90563e-05 20.7094 -7.90563e-05C31.9893 -7.90563e-05 41.1325 8.7266 41.1325 19.4946Z" fill="#282454"/>
<path d="M27.0492 12.1187C26.2738 12.1187 25.6452 12.7187 25.6452 13.4587C25.6452 14.1987 26.2738 14.8 27.0492 14.8C27.8245 14.8 28.4525 14.1987 28.4525 13.4587C28.4525 12.7187 27.8245 12.1187 27.0492 12.1187Z" fill="white"/>
<path d="M20.8076 23.0733C18.7249 23.0733 17.0296 21.4546 17.0296 19.4666C17.0296 17.4786 18.7249 15.8613 20.8076 15.8613C22.8908 15.8613 24.585 17.4786 24.585 19.4666C24.585 21.4546 22.8908 23.0733 20.8076 23.0733ZM20.8076 13.8373C17.5556 13.8373 14.9099 16.3626 14.9099 19.4666C14.9099 22.5706 17.5556 25.0959 20.8076 25.0959C24.0595 25.0959 26.7048 22.5706 26.7048 19.4666C26.7048 16.3626 24.0595 13.8373 20.8076 13.8373Z" fill="white"/>
<path d="M15.929 10.188C13.2048 10.188 10.9889 12.3027 10.9889 14.904V24.0293C10.9889 26.6307 13.2048 28.7453 15.929 28.7453H25.4892C28.2136 28.7453 30.4299 26.6307 30.4299 24.0293V14.904C30.4299 12.3027 28.2136 10.188 25.4892 10.188H15.929ZM25.4892 30.896H15.929C11.9629 30.896 8.73596 27.816 8.73596 24.0293V14.904C8.73596 11.1173 11.9629 8.03732 15.929 8.03732H25.4892C29.4553 8.03732 32.6829 11.1173 32.6829 14.904V24.0293C32.6829 27.816 29.4553 30.896 25.4892 30.896Z" fill="white"/>
</svg>
