<svg width="42" height="39" viewBox="0 0 42 39" fill="none" xmlns="http://www.w3.org/2000/svg">
<path d="M41.1319 19.4946C41.1319 30.2613 31.9883 38.9893 20.709 38.9893C9.4289 38.9893 0.285706 30.2613 0.285706 19.4946C0.285706 8.7266 9.4289 -8.01086e-05 20.709 -8.01086e-05C31.9883 -8.01086e-05 41.1319 8.7266 41.1319 19.4946Z" fill="url(#paint0_linear)"/>
<path d="M31.9926 12.8147C31.2858 13.1201 30.5035 13.3054 29.7409 13.4281C30.1027 13.3694 30.6348 12.7427 30.8486 12.4907C31.174 12.1041 31.4436 11.6641 31.5958 11.1881L31.5903 11.0761L31.4715 11.0867C30.6195 11.5214 29.7381 11.8374 28.8008 12.0614L28.6164 12.0161L28.3832 11.7881C27.9892 11.4667 27.566 11.2161 27.0897 11.0307C26.4625 10.7867 25.7795 10.6841 25.1048 10.7254C24.4483 10.7667 23.8044 10.9427 23.2219 11.2334C22.6394 11.5241 22.1184 11.9294 21.7035 12.4174C21.2747 12.9227 20.959 13.5187 20.797 14.1507C20.6406 14.7614 20.6531 15.3654 20.7481 15.9814L20.6559 16.0841C16.9881 15.5627 13.9479 14.3107 11.4789 11.6254C11.3714 11.5081 11.3135 11.5081 11.2257 11.6334C10.1459 13.1801 10.6697 15.6627 12.0191 16.8827C12.1991 17.0454 12.3835 17.2081 12.5827 17.3574C12.5108 17.3707 11.6126 17.2787 10.8121 16.8827L10.6419 16.9707C10.6315 17.1387 10.6468 17.2921 10.6714 17.4734C10.8776 19.0401 12.0147 20.4894 13.5714 21.0534C13.7559 21.1281 13.9604 21.1934 14.1596 21.2254C13.8049 21.3001 13.4394 21.3521 12.4229 21.2774C12.2962 21.2534 12.2483 21.3147 12.2962 21.4307C13.0601 23.4187 14.7102 24.0107 15.9454 24.3481C16.1113 24.3747 16.2762 24.3747 16.4425 24.4121L16.4125 24.4401C16.0032 25.0361 14.5825 25.4801 13.9206 25.7014C12.7175 26.1027 11.4068 26.2827 10.1356 26.1641C9.93207 26.1347 9.88946 26.1374 9.83429 26.1641L9.89212 26.2934C10.1508 26.4561 10.4133 26.6001 10.6806 26.7401C11.4881 27.1481 12.3306 27.4734 13.2113 27.7054C17.7581 28.9041 22.8797 28.0241 26.2935 24.7854C28.9754 22.2427 29.9155 18.7361 29.9155 15.2241C29.9155 15.0867 30.0859 15.0121 30.1865 14.9387C30.8835 14.4387 31.4464 13.8401 31.966 13.1707C32.0833 13.0214 32.0847 12.8881 32.0847 12.8334V12.8147H31.9926Z" fill="white"/>
<defs>
<linearGradient id="paint0_linear" x1="35.1507" y1="5.70925" x2="7.61014" y2="34.5613" gradientUnits="userSpaceOnUse">
<stop stop-color="#2FBBE1"/>
<stop offset="1" stop-color="#3970C0"/>
</linearGradient>
</defs>
</svg>
