<svg width="129" height="43" viewBox="0 0 129 43" fill="none" xmlns="http://www.w3.org/2000/svg">
<path d="M16.216 17.92C16.216 18.368 16.104 18.688 15.88 18.88C15.688 19.072 15.464 19.168 15.208 19.168C14.92 19.168 14.632 19.12 14.344 19.024C14.088 18.928 13.752 18.8 13.336 18.64L12.616 18.352C12.552 18.512 12.504 18.72 12.472 18.976C12.472 19.2 12.472 19.392 12.472 19.552C12.472 20.672 12.52 21.888 12.616 23.2C12.712 24.512 12.824 25.824 12.952 27.136C13.08 28.448 13.224 29.728 13.384 30.976C13.576 32.224 13.736 33.344 13.864 34.336C13.992 35.36 14.104 36.208 14.2 36.88C14.296 37.584 14.344 38.032 14.344 38.224V39.424C14.344 39.776 14.296 40.096 14.2 40.384C14.136 40.672 13.976 40.816 13.72 40.816C13.24 40.816 12.824 40.416 12.472 39.616C12.152 38.848 11.88 37.952 11.656 36.928C11.464 35.936 11.32 34.96 11.224 34C11.128 33.072 11.08 32.448 11.08 32.128C11.08 31.904 11.032 31.36 10.936 30.496C10.872 29.632 10.792 28.672 10.696 27.616C10.6 26.528 10.504 25.44 10.408 24.352C10.344 23.232 10.312 22.288 10.312 21.52C10.312 21.2 10.296 20.848 10.264 20.464C10.264 20.048 10.264 19.664 10.264 19.312V17.824C10.264 17.312 9.896 16.784 9.16 16.24C8.456 15.696 7.592 15.104 6.568 14.464C5.544 13.792 4.488 13.04 3.4 12.208C2.312 11.344 1.416 10.32 0.712 9.136C0.616 9.104 0.568 8.96 0.568 8.704C0.568 8.256 0.664 7.856 0.856 7.504C1.048 7.152 1.304 6.976 1.624 6.976C1.72 6.976 1.864 7.104 2.056 7.36C2.248 7.584 2.488 7.872 2.776 8.224C3.064 8.576 3.4 8.976 3.784 9.424C4.168 9.84 4.6 10.24 5.08 10.624C5.4 10.912 5.848 11.28 6.424 11.728C7 12.144 7.56 12.56 8.104 12.976C8.68 13.392 9.176 13.76 9.592 14.08C10.008 14.368 10.232 14.512 10.264 14.512C10.392 14.512 10.472 14.384 10.504 14.128C10.536 13.872 10.552 13.712 10.552 13.648L10.792 10.768C10.952 9.136 11.144 7.664 11.368 6.352C11.624 5.008 11.752 3.84 11.752 2.848C11.752 2.752 11.72 2.56 11.656 2.272C11.592 1.984 11.56 1.792 11.56 1.696C11.56 1.504 11.624 1.36 11.752 1.264C11.88 1.136 12.024 1.04 12.184 0.975999C12.376 0.879998 12.6 0.815998 12.856 0.783998C13.304 0.783998 13.624 0.959998 13.816 1.312C14.008 1.632 14.104 1.936 14.104 2.224C14.104 3.376 14.024 4.496 13.864 5.584C13.736 6.672 13.576 7.76 13.384 8.848C13.224 9.936 13.064 11.056 12.904 12.208C12.776 13.328 12.712 14.512 12.712 15.76C12.712 15.952 12.824 16.16 13.048 16.384C13.272 16.576 13.544 16.768 13.864 16.96C14.216 17.12 14.6 17.296 15.016 17.488C15.432 17.648 15.832 17.792 16.216 17.92ZM40.8138 24.016C40.8138 24.592 40.5418 25.312 39.9978 26.176C39.4858 27.008 38.7818 27.824 37.8858 28.624C36.9898 29.424 35.9498 30.112 34.7658 30.688C33.5818 31.232 32.3498 31.504 31.0698 31.504C30.4938 31.504 29.8858 31.408 29.2458 31.216C28.6058 31.024 27.9818 30.752 27.3738 30.4C26.7658 30.016 26.2218 29.568 25.7418 29.056C25.2618 28.512 24.9098 27.904 24.6858 27.232C24.4938 27.424 24.2538 27.744 23.9658 28.192C23.7098 28.64 23.4218 29.104 23.1018 29.584C22.7818 30.032 22.4298 30.432 22.0458 30.784C21.6618 31.104 21.2618 31.264 20.8458 31.264C20.4298 31.264 20.0778 31.056 19.7898 30.64C19.5338 30.192 19.3258 29.712 19.1658 29.2C19.0058 28.656 18.8938 28.144 18.8298 27.664C18.7658 27.184 18.7338 26.912 18.7338 26.848C18.7338 26.464 18.8458 25.744 19.0698 24.688C19.2938 23.6 19.6298 22.48 20.0778 21.328C20.5258 20.176 21.0858 19.152 21.7578 18.256C22.4618 17.36 23.2778 16.912 24.2058 16.912C24.5578 16.912 24.7818 17.072 24.8778 17.392C25.0058 17.68 25.0698 17.968 25.0698 18.256V19.696C25.2298 19.824 25.3898 19.92 25.5498 19.984C25.7418 20.016 25.9018 20.08 26.0298 20.176C26.1898 20.24 26.3018 20.352 26.3658 20.512C26.4618 20.672 26.5098 20.928 26.5098 21.28C26.5098 21.504 26.4938 21.712 26.4618 21.904C26.4298 22.064 26.4138 22.224 26.4138 22.384C26.4138 23.216 26.4778 24.032 26.6058 24.832C26.7338 25.632 26.9898 26.352 27.3738 26.992C27.7578 27.6 28.2858 28.112 28.9578 28.528C29.6298 28.912 30.5258 29.104 31.6458 29.104C33.0538 29.104 34.2378 28.816 35.1978 28.24C36.1898 27.632 37.0058 26.976 37.6458 26.272C38.3178 25.536 38.8458 24.88 39.2298 24.304C39.6138 23.696 39.9338 23.392 40.1898 23.392C40.6058 23.392 40.8138 23.6 40.8138 24.016ZM23.9658 21.904C23.9658 21.776 23.9338 21.664 23.8698 21.568C23.8058 21.44 23.7738 21.328 23.7738 21.232C23.7738 21.104 23.8058 20.992 23.8698 20.896C23.9338 20.8 23.9658 20.672 23.9658 20.512C23.9658 20.416 23.9338 20.352 23.8698 20.32C23.8058 20.256 23.7738 20.192 23.7738 20.128C23.4858 20.192 23.1818 20.464 22.8618 20.944C22.5738 21.424 22.2858 21.984 21.9978 22.624C21.7418 23.264 21.5338 23.92 21.3738 24.592C21.2138 25.232 21.1338 25.76 21.1338 26.176C21.1338 26.4 21.1978 26.768 21.3258 27.28C21.4538 27.792 21.5978 28.128 21.7578 28.288C22.3018 27.168 22.7978 26.08 23.2458 25.024C23.7258 23.968 23.9658 22.928 23.9658 21.904ZM55.8044 28.096C55.8044 28.288 55.7404 28.48 55.6124 28.672C55.4844 28.864 55.3244 29.04 55.1324 29.2C54.9724 29.36 54.7804 29.504 54.5564 29.632C54.3644 29.728 54.1884 29.776 54.0284 29.776C53.4844 29.776 52.7804 29.664 51.9164 29.44C51.0844 29.184 50.4124 28.8 49.9004 28.288C49.3564 27.744 48.8764 27.104 48.4604 26.368C48.0444 25.6 47.5804 24.48 47.0684 23.008C46.7164 24.416 46.3004 25.808 45.8204 27.184C45.3724 28.56 44.6364 29.824 43.6124 30.976C43.5484 31.04 43.4524 31.072 43.3244 31.072C43.1004 31.072 42.8604 30.96 42.6044 30.736C42.3484 30.512 42.2204 30.288 42.2204 30.064C42.2204 29.84 42.1884 29.328 42.1244 28.528C42.0924 27.696 42.0444 26.784 41.9804 25.792C41.9164 24.768 41.8524 23.744 41.7884 22.72C41.7564 21.664 41.7404 20.8 41.7404 20.128C41.7404 19.808 41.7564 19.392 41.7884 18.88C41.8204 18.336 41.9164 17.872 42.0764 17.488C42.1084 17.424 42.2204 17.296 42.4124 17.104C42.6364 16.912 42.8764 16.816 43.1324 16.816C43.3564 16.816 43.4844 16.96 43.5164 17.248C43.5484 17.536 43.5644 17.856 43.5644 18.208V25.792C43.5644 25.952 43.5804 26.176 43.6124 26.464C43.6764 26.752 43.7564 26.96 43.8524 27.088C44.2044 26.32 44.5244 25.424 44.8124 24.4C45.1324 23.344 45.4364 22.352 45.7244 21.424C46.0124 20.464 46.3004 19.664 46.5884 19.024C46.8764 18.352 47.1644 18.016 47.4524 18.016C47.7724 18.016 48.0284 18.08 48.2204 18.208C48.4124 18.336 48.5724 18.592 48.7004 18.976C48.8604 19.904 48.9884 20.736 49.0844 21.472C49.1804 22.176 49.2924 22.816 49.4204 23.392C49.5804 23.968 49.7884 24.512 50.0444 25.024C50.3324 25.504 50.7164 25.952 51.1964 26.368C51.6444 26.784 52.1404 27.088 52.6844 27.28C53.2604 27.472 53.7564 27.568 54.1724 27.568C54.3644 27.568 54.5724 27.536 54.7964 27.472C55.0204 27.376 55.1804 27.328 55.2764 27.328C55.4044 27.328 55.5164 27.44 55.6124 27.664C55.7404 27.888 55.8044 28.032 55.8044 28.096ZM74.1194 30.352C74.1194 30.576 74.0234 30.752 73.8314 30.88C73.5434 31.072 73.0474 31.344 72.3434 31.696C71.6394 32.048 70.8554 32.416 69.9914 32.8C69.1594 33.184 68.2794 33.584 67.3514 34C66.4234 34.416 65.5754 34.784 64.8074 35.104C64.0394 35.424 63.3834 35.68 62.8394 35.872C62.3274 36.096 62.0554 36.208 62.0234 36.208C61.7674 36.208 61.4794 35.92 61.1594 35.344C60.8714 34.768 60.5834 34 60.2954 33.04C60.0074 32.048 59.7354 30.912 59.4794 29.632C59.2234 28.32 58.9834 26.944 58.7594 25.504C58.5674 24.064 58.4074 22.608 58.2794 21.136C58.1834 19.632 58.1354 18.192 58.1354 16.816C58.1354 14.768 58.2314 13.168 58.4234 12.016C58.6474 10.864 58.8874 10 59.1434 9.424C59.4314 8.848 59.6874 8.496 59.9114 8.368C60.1354 8.208 60.2634 8.128 60.2954 8.128C60.5514 8.128 60.7594 8.24 60.9194 8.464C61.0794 8.688 61.1594 8.912 61.1594 9.136C61.1594 9.264 61.0954 9.488 60.9674 9.808C60.8394 10.128 60.6954 10.576 60.5354 11.152C60.4074 11.728 60.2794 12.464 60.1514 13.36C60.0554 14.256 60.0074 15.344 60.0074 16.624C60.0074 17.776 60.0554 18.976 60.1514 20.224C60.2794 21.472 60.4394 22.704 60.6314 23.92C60.8234 25.136 61.0314 26.288 61.2554 27.376C61.5114 28.464 61.7674 29.424 62.0234 30.256C62.2794 31.088 62.5194 31.76 62.7434 32.272C62.9674 32.752 63.1754 32.992 63.3674 32.992C63.3994 32.992 63.6074 32.912 63.9914 32.752C64.3754 32.592 64.8554 32.4 65.4314 32.176C66.0074 31.92 66.6314 31.68 67.3034 31.456C68.0074 31.2 68.7114 30.976 69.4154 30.784C69.7354 30.688 70.1034 30.592 70.5194 30.496C70.9674 30.368 71.3834 30.256 71.7674 30.16C72.1514 30.064 72.4874 29.984 72.7754 29.92C73.0954 29.856 73.2874 29.824 73.3514 29.824C73.8634 29.824 74.1194 30 74.1194 30.352ZM86.7333 11.536C86.3173 13.744 85.9333 15.872 85.5813 17.92C85.4213 18.784 85.2613 19.696 85.1013 20.656C84.9413 21.584 84.7813 22.512 84.6213 23.44C84.4933 24.336 84.3653 25.2 84.2373 26.032C84.1413 26.832 84.0613 27.568 83.9973 28.24C83.8693 29.264 83.7733 30.432 83.7093 31.744C83.6453 33.056 83.5813 34.304 83.5173 35.488C83.4533 36.864 83.4213 38.256 83.4213 39.664C83.4213 39.952 83.3893 40.272 83.3253 40.624C83.2613 40.976 83.2293 41.328 83.2293 41.68C83.2293 42 83.1493 42.272 82.9893 42.496C82.8613 42.72 82.6533 42.832 82.3653 42.832C82.1093 42.832 81.9013 42.624 81.7413 42.208C81.6133 41.824 81.5013 41.36 81.4053 40.816C81.3093 40.304 81.2453 39.776 81.2133 39.232C81.1813 38.72 81.1653 38.352 81.1653 38.128C81.1653 37.872 81.1653 37.552 81.1653 37.168C81.1653 36.816 81.1813 36.272 81.2133 35.536C81.2773 34.832 81.3573 33.904 81.4533 32.752C81.5493 31.568 81.6933 30.032 81.8853 28.144C81.8853 28.112 81.6613 27.952 81.2133 27.664C80.7973 27.376 80.2693 27.024 79.6293 26.608C79.0213 26.16 78.3813 25.68 77.7093 25.168C77.0693 24.656 76.5253 24.16 76.0773 23.68C76.0133 23.616 75.9173 23.472 75.7893 23.248C75.6613 23.024 75.5973 22.752 75.5973 22.432C75.5973 22.272 75.6773 22.112 75.8373 21.952C75.9973 21.76 76.1733 21.664 76.3652 21.664C76.4933 21.664 76.6213 21.728 76.7493 21.856C77.4853 22.496 78.3333 23.216 79.2933 24.016C80.2533 24.784 81.1973 25.488 82.1253 26.128C82.1893 25.552 82.3173 24.672 82.5093 23.488C82.7333 22.304 82.9573 21.04 83.1813 19.696C83.4053 18.32 83.6133 16.992 83.8053 15.712C84.0293 14.432 84.1893 13.408 84.2853 12.64C84.2853 12.512 84.3173 12.304 84.3813 12.016C84.4453 11.728 84.5413 11.44 84.6693 11.152C84.7973 10.864 84.9413 10.624 85.1013 10.432C85.2613 10.208 85.4373 10.096 85.6293 10.096C85.7253 10.096 85.9333 10.192 86.2533 10.384C86.5733 10.544 86.7333 10.928 86.7333 11.536ZM101.576 19.36C101.576 19.584 101.48 19.776 101.288 19.936C101.096 20.064 100.872 20.176 100.616 20.272C100.36 20.368 100.104 20.448 99.8481 20.512C99.5921 20.544 99.3841 20.56 99.2241 20.56C98.7441 20.56 98.4241 20.528 98.2641 20.464C98.1041 20.4 97.9761 20.368 97.8801 20.368C97.0801 20.368 96.4401 20.432 95.9601 20.56C95.4801 20.688 95.0961 20.896 94.8081 21.184C94.5521 21.472 94.3761 21.84 94.2801 22.288C94.2161 22.704 94.1841 23.216 94.1841 23.824C94.1841 24.848 94.2161 25.664 94.2801 26.272C94.3761 26.88 94.4561 27.376 94.5201 27.76C94.6161 28.144 94.6961 28.448 94.7601 28.672C94.8561 28.864 94.9041 29.056 94.9041 29.248C94.9041 29.504 94.7601 29.776 94.4721 30.064C94.2161 30.352 93.9761 30.496 93.7521 30.496C93.3681 30.496 93.0161 30.16 92.6961 29.488C92.4081 28.784 92.1521 27.968 91.9281 27.04C91.7361 26.08 91.5761 25.136 91.4481 24.208C91.3201 23.28 91.2561 22.576 91.2561 22.096C91.2561 21.552 91.3041 21.04 91.4001 20.56C91.4961 20.048 91.6241 19.616 91.7841 19.264C91.9441 18.88 92.1201 18.576 92.3121 18.352C92.5041 18.128 92.6961 18.016 92.8881 18.016C93.0481 18.016 93.1761 18.08 93.2721 18.208C93.3681 18.304 93.4481 18.432 93.5121 18.592C93.5761 18.72 93.6401 18.848 93.7041 18.976C93.8001 19.072 93.9121 19.12 94.0401 19.12C94.3281 19.12 94.7921 18.976 95.4321 18.688C96.0721 18.4 96.8561 18.256 97.7841 18.256C98.6481 18.256 99.2881 18.288 99.7041 18.352C100.152 18.384 100.584 18.48 101 18.64C101.096 18.672 101.208 18.752 101.336 18.88C101.496 18.976 101.576 19.136 101.576 19.36ZM128.236 24.016C128.236 24.592 127.964 25.312 127.42 26.176C126.908 27.008 126.204 27.824 125.308 28.624C124.412 29.424 123.372 30.112 122.188 30.688C121.004 31.232 119.772 31.504 118.492 31.504C117.916 31.504 117.308 31.408 116.668 31.216C116.028 31.024 115.404 30.752 114.796 30.4C114.188 30.016 113.644 29.568 113.164 29.056C112.684 28.512 112.332 27.904 112.108 27.232C111.916 27.424 111.676 27.744 111.388 28.192C111.132 28.64 110.844 29.104 110.524 29.584C110.204 30.032 109.852 30.432 109.468 30.784C109.084 31.104 108.684 31.264 108.268 31.264C107.852 31.264 107.5 31.056 107.212 30.64C106.956 30.192 106.748 29.712 106.588 29.2C106.428 28.656 106.316 28.144 106.252 27.664C106.188 27.184 106.156 26.912 106.156 26.848C106.156 26.464 106.268 25.744 106.492 24.688C106.716 23.6 107.052 22.48 107.5 21.328C107.948 20.176 108.508 19.152 109.18 18.256C109.884 17.36 110.7 16.912 111.628 16.912C111.98 16.912 112.204 17.072 112.3 17.392C112.428 17.68 112.492 17.968 112.492 18.256V19.696C112.652 19.824 112.812 19.92 112.972 19.984C113.164 20.016 113.324 20.08 113.452 20.176C113.612 20.24 113.724 20.352 113.788 20.512C113.884 20.672 113.932 20.928 113.932 21.28C113.932 21.504 113.916 21.712 113.884 21.904C113.852 22.064 113.836 22.224 113.836 22.384C113.836 23.216 113.9 24.032 114.028 24.832C114.156 25.632 114.412 26.352 114.796 26.992C115.18 27.6 115.708 28.112 116.38 28.528C117.052 28.912 117.948 29.104 119.068 29.104C120.476 29.104 121.66 28.816 122.62 28.24C123.612 27.632 124.428 26.976 125.068 26.272C125.74 25.536 126.268 24.88 126.652 24.304C127.036 23.696 127.356 23.392 127.612 23.392C128.028 23.392 128.236 23.6 128.236 24.016ZM111.388 21.904C111.388 21.776 111.356 21.664 111.292 21.568C111.228 21.44 111.196 21.328 111.196 21.232C111.196 21.104 111.228 20.992 111.292 20.896C111.356 20.8 111.388 20.672 111.388 20.512C111.388 20.416 111.356 20.352 111.292 20.32C111.228 20.256 111.196 20.192 111.196 20.128C110.908 20.192 110.604 20.464 110.284 20.944C109.996 21.424 109.708 21.984 109.42 22.624C109.164 23.264 108.956 23.92 108.796 24.592C108.636 25.232 108.556 25.76 108.556 26.176C108.556 26.4 108.62 26.768 108.748 27.28C108.876 27.792 109.02 28.128 109.18 28.288C109.724 27.168 110.22 26.08 110.668 25.024C111.148 23.968 111.388 22.928 111.388 21.904Z" fill="#6C63FF"/>
</svg>
