<svg width="427" height="326" viewBox="0 0 427 326" fill="none" xmlns="http://www.w3.org/2000/svg">
<g clip-path="url(#clip0)">
<path d="M232.555 90.7875C254.221 90.7875 271.785 75.215 271.785 56.0052C271.785 36.7955 254.221 21.2229 232.555 21.2229C210.889 21.2229 193.325 36.7955 193.325 56.0052C193.325 75.215 210.889 90.7875 232.555 90.7875Z" fill="#E3BFA5"/>
<path d="M203.275 73.3964C203.275 73.3964 210.666 122.797 199.295 128.342C187.924 133.887 266.953 134.391 266.953 134.391C266.953 134.391 249.327 91.5437 257.287 78.4373L203.275 73.3964Z" fill="#E3BFA5"/>
<path d="M324.66 134.641L318.087 161.176L304.19 217.316L303.774 220.391L298.978 255.984L295.788 279.629L293.649 295.512C280.642 301.439 271.216 305.53 271.216 305.53C271.216 305.53 270.405 301.926 269.098 297.314C259.97 299.741 243.08 303.766 228.767 304.57C233.979 309.721 236.374 314.56 233.125 318.131C223.32 328.896 182.84 306.344 168.681 297.934C168.351 299.948 168.226 301.983 168.308 304.017L157.473 296.629L158.545 279.629L160.353 250.866L162.626 214.795C161.909 213.251 161.309 211.666 160.828 210.051C157.51 199.589 153.482 178.696 150.393 161.176C147.907 147.076 146.04 135.162 145.645 132.626C145.592 132.295 145.565 132.125 145.565 132.125L205.544 108.627C209.807 117.391 229.711 120.026 229.711 120.026C246.201 119.018 259.127 111.308 259.127 111.308L324.66 134.641Z" fill="#282454"/>
<path d="M275.766 295.451C275.766 295.451 273.227 296.222 269.098 297.314C259.97 299.741 243.08 303.766 228.767 304.57C216.443 305.27 206.03 303.586 204.125 296.458C203.309 293.393 204.467 290.872 206.99 288.8C214.523 282.609 234.198 280.391 249.802 279.629C254.208 279.416 258.284 279.317 261.677 279.279C267.439 279.213 271.216 279.317 271.216 279.317L271.306 279.629L275.766 295.451Z" fill="#E3BFA5"/>
<path d="M199.919 23.1043L192.584 20.5007C192.584 20.5007 207.921 5.53003 229.26 6.83189L223.258 0.973719C223.258 0.973719 237.928 -4.23343 251.265 9.43542C258.275 16.6208 266.387 25.0669 271.443 34.5813H279.299L276.02 40.9818L287.495 47.3823L275.717 46.2327C276.419 49.7377 276.527 53.3159 276.037 56.8491C275.532 60.3834 273.498 63.6053 270.364 65.835C270.364 65.835 261.267 49.1403 261.267 46.5367V53.0457C261.267 53.0457 253.932 47.1876 253.932 43.2822L249.931 47.8385L247.931 40.6786L223.258 47.8385L227.259 41.9805L211.922 43.9332L217.924 36.7732C217.924 36.7732 200.586 45.2349 199.919 52.3949C199.253 59.5547 194.178 66.3391 194.178 66.3391C194.178 66.3391 180.582 32.8678 199.919 23.1043Z" fill="#2F2E41"/>
<path d="M367.301 256.632C363.305 260.473 353.404 266.257 341.4 272.52C336.935 274.847 332.182 277.245 327.332 279.629C315.761 285.319 303.646 290.957 293.649 295.512C280.642 301.439 271.216 305.53 271.216 305.53C271.216 305.53 270.405 301.926 269.098 297.314C267.348 291.142 264.713 283.162 261.965 279.629C261.869 279.506 261.773 279.393 261.677 279.279C260.877 278.347 260.071 277.803 259.276 277.803L298.978 255.984L316.135 246.552L303.774 220.391L288.271 187.574L297.628 161.176L307.034 134.641H324.66C324.66 134.641 330.496 145.937 337.959 161.687C339.074 164.043 340.227 166.498 341.4 169.033C356.754 202.143 375.895 248.378 367.301 256.632Z" fill="#282454"/>
<path d="M233.125 318.131C223.32 328.896 182.84 306.344 168.681 297.934C165.597 296.103 163.762 294.945 163.762 294.945L176.715 279.629L180.818 274.781C180.818 274.781 184.488 276.507 189.913 279.317C190.111 279.421 190.308 279.525 190.511 279.629C195.19 282.065 201.063 285.248 206.99 288.8C215.168 293.705 223.437 299.301 228.767 304.57C233.979 309.721 236.374 314.56 233.125 318.131Z" fill="#E3BFA5"/>
<path d="M189.913 279.317C188.466 279.312 187.02 279.416 185.592 279.629C173.328 281.497 169.711 291.34 168.681 297.934C168.351 299.948 168.226 301.983 168.308 304.017L157.473 296.629L153.525 293.937C144.024 291 135.557 285.783 128.217 279.629C121.848 274.196 116.136 268.19 111.172 261.707C106.228 255.318 101.82 248.615 97.9843 241.652C96.9141 239.709 96.3388 237.581 96.2992 235.419C96.2596 233.257 96.7565 231.114 97.7549 229.141L111.172 202.63L130.783 163.882C130.927 162.96 131.085 162.058 131.257 161.176C135.146 141.405 145.565 132.626 145.565 132.626H153.525L158.849 161.176L165.464 196.647L160.828 210.051L150.116 241.009L160.353 250.866L189.913 279.317Z" fill="#282454"/>
<path d="M198.922 196.675L205.726 203.713C208.255 203.286 210.895 202.784 213.614 202.22L211.659 196.675L216.438 201.618C245.244 195.336 280.95 183.123 280.95 183.123C280.95 183.123 242.402 185.629 213.62 180.054C200.886 177.587 187.784 183.184 182.558 193.772C179.52 199.926 179.997 205.258 190.77 205.258C194.41 205.202 198.04 204.9 201.628 204.352L198.922 196.675Z" fill="#6639E4"/>
<path d="M354.044 312.36V315.231C354.046 316.019 353.881 316.801 353.558 317.535C353.415 317.862 353.242 318.179 353.041 318.481C352.405 319.427 351.503 320.211 350.423 320.755C349.342 321.299 348.121 321.584 346.879 321.584H108.654C107.412 321.584 106.191 321.299 105.11 320.755C104.03 320.211 103.128 319.427 102.492 318.481C102.291 318.179 102.118 317.862 101.975 317.535C101.652 316.801 101.487 316.019 101.489 315.231V312.36C101.489 311.526 101.674 310.7 102.034 309.929C102.394 309.158 102.922 308.458 103.587 307.868C104.253 307.278 105.042 306.81 105.912 306.491C106.781 306.172 107.713 306.008 108.654 306.008H122.386V304.669C122.386 304.635 122.393 304.6 122.408 304.568C122.423 304.536 122.445 304.507 122.473 304.482C122.501 304.457 122.534 304.438 122.57 304.425C122.606 304.411 122.645 304.405 122.684 304.405H129.849C129.888 304.405 129.927 304.411 129.963 304.425C130 304.438 130.033 304.457 130.06 304.482C130.088 304.507 130.11 304.536 130.125 304.568C130.14 304.6 130.148 304.635 130.148 304.669V306.008H134.624V304.669C134.624 304.635 134.631 304.6 134.646 304.568C134.661 304.536 134.683 304.507 134.711 304.482C134.739 304.457 134.772 304.438 134.808 304.425C134.844 304.411 134.883 304.405 134.922 304.405H142.087C142.126 304.405 142.165 304.411 142.201 304.425C142.238 304.438 142.271 304.457 142.298 304.482C142.326 304.507 142.348 304.536 142.363 304.568C142.378 304.6 142.386 304.635 142.386 304.669V306.008H146.867V304.669C146.867 304.635 146.875 304.6 146.89 304.568C146.905 304.536 146.927 304.507 146.954 304.482C146.982 304.457 147.015 304.438 147.051 304.425C147.088 304.411 147.127 304.405 147.166 304.405H154.33C154.37 304.405 154.409 304.411 154.445 304.425C154.481 304.438 154.514 304.457 154.542 304.482C154.57 304.507 154.592 304.536 154.607 304.568C154.622 304.6 154.629 304.635 154.629 304.669V306.008H159.105V304.669C159.105 304.635 159.113 304.6 159.128 304.568C159.143 304.536 159.165 304.507 159.192 304.482C159.22 304.457 159.253 304.438 159.289 304.425C159.326 304.411 159.365 304.405 159.404 304.405H166.568C166.608 304.405 166.647 304.411 166.683 304.425C166.719 304.438 166.752 304.457 166.78 304.482C166.808 304.507 166.83 304.536 166.845 304.568C166.86 304.6 166.867 304.635 166.867 304.669V306.008H171.343V304.669C171.343 304.635 171.351 304.6 171.366 304.568C171.381 304.536 171.403 304.507 171.43 304.482C171.458 304.457 171.491 304.438 171.527 304.425C171.564 304.411 171.603 304.405 171.642 304.405H178.806C178.846 304.405 178.885 304.411 178.921 304.425C178.957 304.438 178.99 304.457 179.018 304.482C179.046 304.507 179.068 304.536 179.083 304.568C179.098 304.6 179.105 304.635 179.105 304.669V306.008H183.586V304.669C183.586 304.635 183.594 304.6 183.609 304.568C183.624 304.536 183.646 304.507 183.674 304.482C183.702 304.457 183.734 304.438 183.771 304.425C183.807 304.411 183.846 304.405 183.885 304.405H191.05C191.089 304.405 191.128 304.411 191.164 304.425C191.2 304.438 191.233 304.457 191.261 304.482C191.289 304.507 191.311 304.536 191.326 304.568C191.341 304.6 191.349 304.635 191.349 304.669V306.008H195.824V304.669C195.824 304.635 195.832 304.6 195.847 304.568C195.862 304.536 195.884 304.507 195.912 304.482C195.94 304.457 195.972 304.438 196.009 304.425C196.045 304.411 196.084 304.405 196.123 304.405H252.245C252.284 304.405 252.323 304.411 252.36 304.425C252.396 304.438 252.429 304.457 252.457 304.482C252.484 304.507 252.506 304.536 252.521 304.568C252.536 304.6 252.544 304.635 252.544 304.669V306.008H257.025V304.669C257.025 304.635 257.033 304.6 257.048 304.568C257.063 304.536 257.085 304.507 257.113 304.482C257.14 304.457 257.173 304.438 257.21 304.425C257.246 304.411 257.285 304.405 257.324 304.405H264.489C264.568 304.405 264.643 304.433 264.699 304.483C264.755 304.532 264.787 304.599 264.787 304.669V306.008H269.263V304.669C269.263 304.635 269.271 304.6 269.286 304.568C269.301 304.536 269.323 304.507 269.351 304.482C269.378 304.457 269.411 304.438 269.448 304.425C269.484 304.411 269.523 304.405 269.562 304.405H276.727C276.766 304.405 276.805 304.411 276.841 304.425C276.877 304.438 276.91 304.457 276.938 304.482C276.966 304.507 276.988 304.536 277.003 304.568C277.018 304.6 277.025 304.635 277.025 304.669V306.008H281.501V304.669C281.501 304.635 281.509 304.6 281.524 304.568C281.539 304.536 281.561 304.507 281.589 304.482C281.616 304.457 281.649 304.438 281.686 304.425C281.722 304.411 281.761 304.405 281.8 304.405H288.965C289.004 304.405 289.043 304.411 289.079 304.425C289.115 304.438 289.148 304.457 289.176 304.482C289.204 304.507 289.226 304.536 289.241 304.568C289.256 304.6 289.263 304.635 289.263 304.669V306.008H293.745V304.669C293.745 304.635 293.752 304.6 293.767 304.568C293.782 304.536 293.804 304.507 293.832 304.482C293.86 304.457 293.893 304.438 293.929 304.425C293.965 304.411 294.004 304.405 294.043 304.405H301.208C301.286 304.405 301.361 304.434 301.416 304.483C301.471 304.533 301.502 304.6 301.501 304.669V306.008H305.983V304.669C305.983 304.635 305.99 304.6 306.005 304.568C306.02 304.536 306.042 304.507 306.07 304.482C306.098 304.457 306.131 304.438 306.167 304.425C306.203 304.411 306.242 304.405 306.281 304.405H313.446C313.485 304.405 313.524 304.411 313.56 304.425C313.597 304.438 313.63 304.457 313.657 304.482C313.685 304.507 313.707 304.536 313.722 304.568C313.737 304.6 313.745 304.635 313.745 304.669V306.008H318.221V304.669C318.221 304.635 318.228 304.6 318.243 304.568C318.258 304.536 318.28 304.507 318.308 304.482C318.336 304.457 318.369 304.438 318.405 304.425C318.441 304.411 318.48 304.405 318.519 304.405H325.684C325.723 304.405 325.762 304.411 325.798 304.425C325.835 304.438 325.868 304.457 325.895 304.482C325.923 304.507 325.945 304.536 325.96 304.568C325.975 304.6 325.983 304.635 325.983 304.669V306.008H346.879C347.82 306.008 348.752 306.172 349.621 306.491C350.491 306.81 351.281 307.278 351.946 307.868C352.611 308.458 353.139 309.158 353.499 309.929C353.859 310.7 354.044 311.526 354.044 312.36Z" fill="#3F3D56"/>
<path d="M423.316 317.535H32.2756V318.481H423.316V317.535Z" fill="#6639E4"/>
<path d="M334.862 191.449H246.068V189.826H205.806V191.449H116.646C115.053 191.449 113.525 192.01 112.399 193.008C111.272 194.007 110.64 195.361 110.64 196.774V304.575C110.64 305.988 111.272 307.342 112.399 308.341C113.525 309.339 115.053 309.901 116.646 309.901H334.862C336.455 309.901 337.983 309.339 339.109 308.341C340.236 307.342 340.868 305.988 340.868 304.575V196.774C340.868 196.075 340.713 195.382 340.411 194.736C340.109 194.09 339.667 193.503 339.109 193.008C338.551 192.514 337.889 192.122 337.161 191.854C336.432 191.586 335.651 191.449 334.862 191.449Z" fill="#3F3D56"/>
<path d="M225.929 240.91C233.294 240.91 239.266 235.615 239.266 229.085C239.266 222.554 233.294 217.26 225.929 217.26C218.563 217.26 212.592 222.554 212.592 229.085C212.592 235.615 218.563 240.91 225.929 240.91Z" stroke="#6639E4" stroke-width="2" stroke-miterlimit="10"/>
<path d="M221.661 245.167C229.027 245.167 234.998 239.872 234.998 233.342C234.998 226.811 229.027 221.517 221.661 221.517C214.295 221.517 208.324 226.811 208.324 233.342C208.324 239.872 214.295 245.167 221.661 245.167Z" fill="#6639E4"/>
<path d="M57.8538 312.756H42.9163V326H57.8538V312.756Z" fill="#282454"/>
<path d="M48.7867 302.35V318.432H66.925V302.35H48.7867ZM66.1354 317.732H49.5709V303.05H66.1354V317.732Z" fill="#6639E4"/>
<path d="M403.548 312.756H388.611V326H403.548V312.756Z" fill="#282454"/>
<path d="M394.481 302.35V318.432H412.62V302.35H394.481ZM411.83 317.732H395.266V303.05H411.83V317.732Z" fill="#6639E4"/>
<path d="M50.4565 108.843C73.8328 108.843 92.783 92.0411 92.783 71.3151C92.783 50.589 73.8328 33.7873 50.4565 33.7873C27.0802 33.7873 8.13004 50.589 8.13004 71.3151C8.13004 92.0411 27.0802 108.843 50.4565 108.843Z" fill="#6639E4"/>
<path d="M65.2067 26.7196C61.3743 26.2874 57.4955 26.2874 53.6631 26.7196C45.125 27.7135 37.0878 30.8582 30.505 35.7806C23.9223 40.7029 19.0703 47.1963 16.5249 54.4901C15.3672 57.8141 14.7116 61.2596 14.5752 64.7363C14.556 65.2196 14.5432 65.7087 14.5432 66.1976C14.5551 76.7506 19.2885 86.8683 27.7048 94.3304C36.1211 101.792 47.5325 105.989 59.4349 106C60.3905 106 61.346 105.971 62.2887 105.92C64.5017 105.797 66.7011 105.527 68.8686 105.113C79.2191 103.139 88.45 97.9863 94.9311 90.5639C101.412 83.1414 104.726 73.9271 104.288 64.5483C103.85 55.1696 99.6879 46.2298 92.5368 39.3079C85.3857 32.386 75.7058 27.9274 65.2067 26.7196H65.2067ZM73.486 102.804H73.4796C69.8642 103.898 66.101 104.562 62.2887 104.777C61.346 104.834 60.3904 104.863 59.4349 104.863C47.8734 104.85 36.7894 100.772 28.6142 93.5241C20.439 86.2757 15.8399 76.4484 15.8258 66.1976C15.8258 65.7087 15.8386 65.2196 15.8578 64.7363C16.2987 54.7464 21.0809 45.295 29.2034 38.3605C37.3259 31.4259 48.1589 27.5459 59.4349 27.5327C69.7664 27.5332 79.7623 30.7857 87.6415 36.7108C95.5208 42.6359 100.772 50.8487 102.459 59.886C104.146 68.9233 102.159 78.1981 96.8533 86.058C91.5473 93.9179 83.2664 99.8525 73.486 102.804H73.486Z" fill="#282454"/>
<path d="M60.0762 29.8071H58.7936V37.7675H60.0762V29.8071Z" fill="#282454"/>
<path d="M30.866 40.0636L29.959 40.8677L36.3077 46.4966L37.2146 45.6924L30.866 40.0636Z" fill="#282454"/>
<path d="M18.391 65.6291V66.7663H27.3694V65.6291H18.391Z" fill="#282454"/>
<path d="M29.959 91.5276L30.866 92.3317L37.2146 86.7029L36.3077 85.8987L29.959 91.5276Z" fill="#282454"/>
<path d="M81.6551 45.6925L82.5621 46.4966L88.9107 40.8677L88.0038 40.0636L81.6551 45.6925Z" fill="#282454"/>
<path d="M91.5004 65.629V66.7662H100.479V65.629H91.5004Z" fill="#282454"/>
<path d="M82.5621 85.8987L81.6552 86.7029L88.0038 92.3317L88.9107 91.5276L82.5621 85.8987Z" fill="#282454"/>
<path d="M60.0762 94.6277H58.7936V102.588H60.0762V94.6277Z" fill="#282454"/>
<path d="M61.3588 63.9232C60.8038 63.5542 60.1287 63.3546 59.4349 63.3546C58.7411 63.3546 58.066 63.5542 57.5109 63.9232C57.131 64.1791 56.8181 64.5051 56.5939 64.8785C56.3098 65.3594 56.1869 65.9023 56.2397 66.4432C56.2926 66.984 56.5189 67.5001 56.8921 67.9305C57.2652 68.3609 57.7695 68.6876 58.3454 68.872C58.9213 69.0564 59.5447 69.0908 60.1419 68.971C60.7391 68.8513 61.2851 68.5825 61.7155 68.1964C62.1459 67.8103 62.4426 67.323 62.5706 66.7921C62.6986 66.2613 62.6525 65.709 62.4378 65.2006C62.223 64.6922 61.8486 64.249 61.3588 63.9232H61.3588ZM59.4349 67.9035C58.9251 67.9021 58.4366 67.722 58.0761 67.4024C57.7156 67.0828 57.5124 66.6497 57.5109 66.1977C57.5134 65.8527 57.6318 65.5161 57.8509 65.231C58.0388 64.9897 58.2937 64.7955 58.5911 64.6671C58.8884 64.5388 59.2181 64.4806 59.5482 64.4982C59.8783 64.5159 60.1977 64.6088 60.4755 64.7679C60.7533 64.927 60.9801 65.147 61.1339 65.4065C61.2878 65.6661 61.3635 65.9565 61.3537 66.2496C61.344 66.5427 61.2491 66.8286 61.0783 67.0796C60.9074 67.3307 60.6664 67.5384 60.3785 67.6828C60.0906 67.8271 59.7656 67.9031 59.4349 67.9035V67.9035Z" fill="#282454"/>
<path d="M65.2067 16.7292H53.6631V26.9641H65.2067V16.7292Z" fill="#282454"/>
<path d="M59.4349 18.435C67.9353 18.435 74.8263 16.2712 74.8263 13.6019C74.8263 10.9327 67.9353 8.7688 59.4349 8.7688C50.9344 8.7688 44.0434 10.9327 44.0434 13.6019C44.0434 16.2712 50.9344 18.435 59.4349 18.435Z" fill="#282454"/>
<path d="M61.3588 44.5908H57.511V63.9232H61.3588V44.5908Z" fill="#282454"/>
<path d="M120.566 104.267H0V105.405H120.566V104.267Z" fill="#282454"/>
<path d="M80.3386 283.682C80.8364 298.794 70.8773 304.332 58.3789 304.656C58.0886 304.663 57.7996 304.668 57.5119 304.67C56.9323 304.674 56.3583 304.665 55.7899 304.644C44.4864 304.228 35.539 298.908 35.076 284.854C34.597 270.309 54.9582 251.411 56.4859 250.014L56.4886 250.012C56.5467 249.959 56.5764 249.932 56.5764 249.932C56.5764 249.932 79.8409 268.571 80.3386 283.682Z" fill="#282454"/>
<path d="M57.4791 302.366L65.4185 291.897L57.4953 303.492L57.5118 304.67C56.9322 304.674 56.3583 304.665 55.7899 304.644L56.1837 289.502L56.1729 289.386L56.1874 289.363L56.2251 287.932L47.5305 276.74L56.2149 286.861L56.2457 287.164L56.5431 275.724L49.0333 264.12L56.5645 273.714L56.4859 250.014L56.4861 249.935L56.4886 250.012L56.9871 268.692L63.8314 261.104L57.0095 270.301L57.1589 280.534L63.4571 270.547L57.1821 282.038L57.2652 287.728L66.4244 273.816L57.2931 289.713L57.4791 302.366Z" fill="#6639E4"/>
<path d="M426.033 283.682C426.531 298.794 416.572 304.332 404.074 304.656C403.783 304.663 403.494 304.668 403.206 304.67C402.627 304.674 402.053 304.665 401.485 304.644C390.181 304.228 381.234 298.908 380.771 284.854C380.292 270.309 400.653 251.411 402.181 250.014L402.183 250.012C402.241 249.959 402.271 249.932 402.271 249.932C402.271 249.932 425.536 268.571 426.033 283.682Z" fill="#282454"/>
<path d="M403.174 302.366L411.113 291.897L403.19 303.492L403.207 304.67C402.627 304.674 402.053 304.665 401.485 304.644L401.878 289.502L401.868 289.386L401.882 289.363L401.92 287.932L393.225 276.74L401.91 286.861L401.94 287.164L402.238 275.724L394.728 264.12L402.259 273.714L402.181 250.014L402.181 249.935L402.183 250.012L402.682 268.692L409.526 261.104L402.704 270.301L402.854 280.534L409.152 270.547L402.877 282.038L402.96 287.728L412.119 273.816L402.988 289.713L403.174 302.366Z" fill="#6639E4"/>
</g>
<defs>
<clipPath id="clip0">
<rect width="426.051" height="326" fill="white"/>
</clipPath>
</defs>
</svg>
