<svg width="395" height="326" viewBox="0 0 395 326" fill="none" xmlns="http://www.w3.org/2000/svg">
<path d="M215.606 90.7875C235.693 90.7875 251.977 75.215 251.977 56.0052C251.977 36.7955 235.693 21.2229 215.606 21.2229C195.519 21.2229 179.235 36.7955 179.235 56.0052C179.235 75.215 195.519 90.7875 215.606 90.7875Z" fill="#E3BFA5"/>
<path d="M188.46 73.3964C188.46 73.3964 195.312 122.797 184.77 128.342C174.228 133.887 247.497 134.391 247.497 134.391C247.497 134.391 231.156 91.5437 238.536 78.4373L188.46 73.3964Z" fill="#E3BFA5"/>
<path d="M300.998 134.641L294.905 161.176L282.02 217.316L281.635 220.391L277.188 255.984L274.23 279.629L272.247 295.512C260.189 301.439 251.449 305.53 251.449 305.53C251.449 305.53 250.697 301.926 249.486 297.314C241.023 299.741 225.364 303.766 212.094 304.57C216.926 309.721 219.147 314.56 216.135 318.131C207.044 328.896 169.514 306.344 156.387 297.934C156.082 299.948 155.966 301.983 156.041 304.017L145.996 296.629L146.99 279.629L148.667 250.866L150.774 214.795C150.109 213.251 149.552 211.666 149.107 210.051C146.03 199.589 142.296 178.696 139.432 161.176C137.128 147.076 135.397 135.162 135.031 132.626C134.981 132.295 134.956 132.125 134.956 132.125L190.564 108.627C194.516 117.391 212.969 120.026 212.969 120.026C228.257 119.018 240.242 111.308 240.242 111.308L300.998 134.641Z" fill="#D0CDE1"/>
<path d="M255.668 295.451C255.668 295.451 253.314 296.222 249.486 297.314C241.023 299.741 225.364 303.766 212.094 304.57C200.669 305.27 191.014 303.586 189.248 296.458C188.492 293.393 189.565 290.872 191.904 288.8C198.888 282.609 217.129 280.391 231.596 279.629C235.681 279.416 239.46 279.317 242.606 279.279C247.947 279.213 251.449 279.317 251.449 279.317L251.533 279.629L255.668 295.451Z" fill="#E3BFA5"/>
<path d="M185.349 23.1043L178.549 20.5007C178.549 20.5007 192.768 5.53003 212.551 6.83189L206.987 0.973719C206.987 0.973719 220.588 -4.23343 232.952 9.43542C239.452 16.6208 246.972 25.0669 251.66 34.5813H258.943L255.904 40.9818L266.542 47.3823L255.623 46.2327C256.273 49.7377 256.373 53.3159 255.919 56.8491C255.451 60.3834 253.565 63.6053 250.659 65.835C250.659 65.835 242.226 49.1403 242.226 46.5367V53.0457C242.226 53.0457 235.425 47.1876 235.425 43.2822L231.716 47.8385L229.861 40.6786L206.987 47.8385L210.696 41.9805L196.477 43.9332L202.041 36.7732C202.041 36.7732 185.967 45.2349 185.349 52.3949C184.731 59.5547 180.026 66.3391 180.026 66.3391C180.026 66.3391 167.421 32.8678 185.349 23.1043Z" fill="#2F2E41"/>
<path d="M340.531 256.632C336.827 260.473 327.647 266.257 316.519 272.52C312.379 274.847 307.972 277.245 303.476 279.629C292.748 285.319 281.516 290.957 272.247 295.512C260.189 301.439 251.449 305.53 251.449 305.53C251.449 305.53 250.697 301.926 249.486 297.314C247.863 291.142 245.42 283.162 242.873 279.629C242.784 279.506 242.695 279.393 242.606 279.279C241.864 278.347 241.117 277.803 240.38 277.803L277.188 255.984L293.094 246.552L281.635 220.391L267.261 187.574L275.937 161.176L284.657 134.641H300.998C300.998 134.641 306.409 145.937 313.328 161.687C314.362 164.043 315.43 166.498 316.519 169.033C330.753 202.143 348.499 248.378 340.531 256.632Z" fill="#D0CDE1"/>
<path d="M216.135 318.131C207.044 328.896 169.514 306.344 156.387 297.934C153.529 296.103 151.827 294.945 151.827 294.945L163.836 279.629L167.639 274.781C167.639 274.781 171.042 276.507 176.072 279.317C176.255 279.421 176.438 279.525 176.626 279.629C180.964 282.065 186.409 285.248 191.904 288.8C199.487 293.705 207.153 299.301 212.094 304.57C216.926 309.721 219.147 314.56 216.135 318.131Z" fill="#E3BFA5"/>
<path d="M176.072 279.317C174.73 279.312 173.39 279.416 172.066 279.629C160.695 281.497 157.342 291.34 156.387 297.934C156.082 299.948 155.966 301.983 156.041 304.017L145.996 296.629L142.336 293.937C133.527 291 125.678 285.783 118.872 279.629C112.968 274.196 107.672 268.19 103.07 261.707C98.4855 255.318 94.399 248.615 90.8431 241.652C89.8509 239.709 89.3175 237.581 89.2808 235.419C89.244 233.257 89.7048 231.114 90.6304 229.141L103.07 202.63L121.251 163.882C121.385 162.96 121.531 162.058 121.691 161.176C125.297 141.405 134.956 132.626 134.956 132.626H142.336L147.272 161.176L153.405 196.647L149.107 210.051L139.175 241.009L148.667 250.866L176.072 279.317Z" fill="#D0CDE1"/>
<path d="M184.424 196.675L190.733 203.713C193.077 203.286 195.524 202.784 198.045 202.22L196.233 196.675L200.664 201.618C227.371 195.336 260.474 183.123 260.474 183.123C260.474 183.123 224.736 185.629 198.051 180.054C186.245 177.587 174.098 183.184 169.253 193.772C166.437 199.926 166.879 205.258 176.867 205.258C180.241 205.202 183.607 204.9 186.933 204.352L184.424 196.675Z" fill="#6C63FF"/>
<path d="M328.241 312.36V315.231C328.242 316.019 328.09 316.801 327.791 317.535C327.658 317.862 327.497 318.179 327.311 318.481C326.721 319.427 325.885 320.211 324.883 320.755C323.882 321.299 322.75 321.584 321.598 321.584H100.735C99.5834 321.584 98.4513 321.299 97.4498 320.755C96.4484 320.211 95.6119 319.427 95.0225 318.481C94.836 318.179 94.6755 317.862 94.5427 317.535C94.2436 316.801 94.0909 316.019 94.0926 315.231V312.36C94.0924 311.526 94.264 310.7 94.5978 309.929C94.9315 309.158 95.4208 308.458 96.0376 307.868C96.6545 307.278 97.3868 306.81 98.1928 306.491C98.9988 306.172 99.8627 306.008 100.735 306.008H113.466V304.669C113.466 304.635 113.473 304.6 113.487 304.568C113.501 304.536 113.521 304.507 113.547 304.482C113.573 304.457 113.603 304.438 113.637 304.425C113.671 304.411 113.707 304.405 113.743 304.405H120.385C120.422 304.405 120.458 304.411 120.492 304.425C120.525 304.438 120.556 304.457 120.581 304.482C120.607 304.507 120.628 304.536 120.642 304.568C120.655 304.6 120.663 304.635 120.662 304.669V306.008H124.812V304.669C124.812 304.635 124.819 304.6 124.833 304.568C124.847 304.536 124.867 304.507 124.893 304.482C124.919 304.457 124.949 304.438 124.983 304.425C125.017 304.411 125.053 304.405 125.089 304.405H131.732C131.768 304.405 131.804 304.411 131.838 304.425C131.871 304.438 131.902 304.457 131.928 304.482C131.953 304.507 131.974 304.536 131.988 304.568C132.001 304.6 132.009 304.635 132.009 304.669V306.008H136.163V304.669C136.163 304.635 136.17 304.6 136.184 304.568C136.198 304.536 136.218 304.507 136.244 304.482C136.27 304.457 136.3 304.438 136.334 304.425C136.368 304.411 136.404 304.405 136.44 304.405H143.083C143.119 304.405 143.155 304.411 143.189 304.425C143.222 304.438 143.253 304.457 143.279 304.482C143.304 304.507 143.325 304.536 143.339 304.568C143.353 304.6 143.36 304.635 143.36 304.669V306.008H147.509V304.669C147.509 304.635 147.516 304.6 147.53 304.568C147.544 304.536 147.565 304.507 147.59 304.482C147.616 304.457 147.647 304.438 147.68 304.425C147.714 304.411 147.75 304.405 147.786 304.405H154.429C154.465 304.405 154.501 304.411 154.535 304.425C154.568 304.438 154.599 304.457 154.625 304.482C154.65 304.507 154.671 304.536 154.685 304.568C154.699 304.6 154.706 304.635 154.706 304.669V306.008H158.855V304.669C158.855 304.635 158.862 304.6 158.876 304.568C158.89 304.536 158.911 304.507 158.936 304.482C158.962 304.457 158.993 304.438 159.026 304.425C159.06 304.411 159.096 304.405 159.132 304.405H165.775C165.811 304.405 165.847 304.411 165.881 304.425C165.914 304.438 165.945 304.457 165.971 304.482C165.996 304.507 166.017 304.536 166.031 304.568C166.045 304.6 166.052 304.635 166.052 304.669V306.008H170.206V304.669C170.206 304.635 170.213 304.6 170.227 304.568C170.241 304.536 170.262 304.507 170.287 304.482C170.313 304.457 170.344 304.438 170.377 304.425C170.411 304.411 170.447 304.405 170.483 304.405H177.126C177.162 304.405 177.198 304.411 177.232 304.425C177.266 304.438 177.296 304.457 177.322 304.482C177.348 304.507 177.368 304.536 177.382 304.568C177.396 304.6 177.403 304.635 177.403 304.669V306.008H181.552V304.669C181.552 304.635 181.56 304.6 181.573 304.568C181.587 304.536 181.608 304.507 181.633 304.482C181.659 304.457 181.69 304.438 181.723 304.425C181.757 304.411 181.793 304.405 181.829 304.405H233.861C233.898 304.405 233.934 304.411 233.967 304.425C234.001 304.438 234.032 304.457 234.057 304.482C234.083 304.507 234.103 304.536 234.117 304.568C234.131 304.6 234.138 304.635 234.138 304.669V306.008H238.293V304.669C238.293 304.635 238.3 304.6 238.314 304.568C238.328 304.536 238.348 304.507 238.374 304.482C238.4 304.457 238.43 304.438 238.464 304.425C238.497 304.411 238.533 304.405 238.57 304.405H245.212C245.286 304.405 245.356 304.433 245.407 304.483C245.459 304.532 245.489 304.599 245.489 304.669V306.008H249.639V304.669C249.639 304.635 249.646 304.6 249.66 304.568C249.674 304.536 249.694 304.507 249.72 304.482C249.746 304.457 249.776 304.438 249.81 304.425C249.844 304.411 249.88 304.405 249.916 304.405H256.558C256.595 304.405 256.631 304.411 256.664 304.425C256.698 304.438 256.729 304.457 256.754 304.482C256.78 304.507 256.801 304.536 256.814 304.568C256.828 304.6 256.835 304.635 256.835 304.669V306.008H260.985V304.669C260.985 304.635 260.992 304.6 261.006 304.568C261.02 304.536 261.04 304.507 261.066 304.482C261.092 304.457 261.122 304.438 261.156 304.425C261.19 304.411 261.226 304.405 261.262 304.405H267.905C267.941 304.405 267.977 304.411 268.011 304.425C268.044 304.438 268.075 304.457 268.101 304.482C268.126 304.507 268.147 304.536 268.161 304.568C268.174 304.6 268.182 304.635 268.182 304.669V306.008H272.336V304.669C272.336 304.635 272.343 304.6 272.357 304.568C272.371 304.536 272.391 304.507 272.417 304.482C272.443 304.457 272.473 304.438 272.507 304.425C272.541 304.411 272.577 304.405 272.613 304.405H279.256C279.328 304.405 279.398 304.434 279.449 304.483C279.5 304.533 279.528 304.6 279.528 304.669V306.008H283.682V304.669C283.682 304.635 283.689 304.6 283.703 304.568C283.717 304.536 283.737 304.507 283.763 304.482C283.789 304.457 283.82 304.438 283.853 304.425C283.887 304.411 283.923 304.405 283.959 304.405H290.602C290.638 304.405 290.674 304.411 290.708 304.425C290.741 304.438 290.772 304.457 290.798 304.482C290.823 304.507 290.844 304.536 290.858 304.568C290.872 304.6 290.879 304.635 290.879 304.669V306.008H295.028V304.669C295.028 304.635 295.035 304.6 295.049 304.568C295.063 304.536 295.084 304.507 295.109 304.482C295.135 304.457 295.166 304.438 295.199 304.425C295.233 304.411 295.269 304.405 295.305 304.405H301.948C301.984 304.405 302.02 304.411 302.054 304.425C302.087 304.438 302.118 304.457 302.144 304.482C302.169 304.507 302.19 304.536 302.204 304.568C302.218 304.6 302.225 304.635 302.225 304.669V306.008H321.598C322.471 306.008 323.334 306.172 324.14 306.491C324.946 306.81 325.679 307.278 326.296 307.868C326.912 308.458 327.402 309.158 327.735 309.929C328.069 310.7 328.241 311.526 328.241 312.36Z" fill="#3F3D56"/>
<path d="M392.464 317.535H29.9233V318.481H392.464V317.535Z" fill="#3F3D56"/>
<path d="M310.457 191.449H228.134V189.826H190.806V191.449H108.144C106.668 191.449 105.251 192.01 104.207 193.008C103.163 194.007 102.576 195.361 102.576 196.774V304.575C102.576 305.988 103.163 307.342 104.207 308.341C105.251 309.339 106.668 309.901 108.144 309.901H310.457C311.934 309.901 313.35 309.339 314.394 308.341C315.439 307.342 316.025 305.988 316.025 304.575V196.774C316.025 196.075 315.881 195.382 315.602 194.736C315.322 194.09 314.912 193.503 314.394 193.008C313.877 192.514 313.263 192.122 312.588 191.854C311.912 191.586 311.188 191.449 310.457 191.449Z" fill="#3F3D56"/>
<path d="M209.463 240.91C216.292 240.91 221.828 235.615 221.828 229.085C221.828 222.554 216.292 217.26 209.463 217.26C202.634 217.26 197.098 222.554 197.098 229.085C197.098 235.615 202.634 240.91 209.463 240.91Z" stroke="#6C63FF" stroke-width="2" stroke-miterlimit="10"/>
<path d="M205.506 245.167C212.335 245.167 217.871 239.872 217.871 233.342C217.871 226.811 212.335 221.517 205.506 221.517C198.677 221.517 193.141 226.811 193.141 233.342C193.141 239.872 198.677 245.167 205.506 245.167Z" fill="#6C63FF"/>
<path d="M53.6373 312.756H39.7885V326H53.6373V312.756Z" fill="#D0CDE1"/>
<path d="M45.2311 302.35V318.432H62.0474V302.35H45.2311ZM61.3154 317.732H45.9581V303.05H61.3154V317.732Z" fill="#3F3D56"/>
<path d="M374.137 312.756H360.289V326H374.137V312.756Z" fill="#D0CDE1"/>
<path d="M365.731 302.35V318.432H382.547V302.35H365.731ZM381.815 317.732H366.458V303.05H381.815V317.732Z" fill="#3F3D56"/>
<path d="M46.7792 108.843C68.4518 108.843 86.0209 92.0411 86.0209 71.3151C86.0209 50.589 68.4518 33.7873 46.7792 33.7873C25.1066 33.7873 7.53751 50.589 7.53751 71.3151C7.53751 92.0411 25.1066 108.843 46.7792 108.843Z" fill="#6C63FF"/>
<path d="M60.4543 26.7196C56.9012 26.2874 53.3052 26.2874 49.752 26.7196C41.8363 27.7135 34.3848 30.8582 28.2818 35.7806C22.1788 40.7029 17.6804 47.1963 15.3205 54.4901C14.2472 57.8141 13.6394 61.2596 13.513 64.7363C13.4952 65.2196 13.4832 65.7087 13.4832 66.1977C13.4943 76.7506 17.8828 86.8683 25.6856 94.3304C33.4885 101.792 44.0683 105.989 55.1032 106C55.9891 106 56.875 105.971 57.7491 105.92C59.8007 105.797 61.8399 105.527 63.8494 105.113C73.4455 103.139 82.0037 97.9863 88.0124 90.5639C94.0211 83.1414 97.0937 73.9271 96.6875 64.5483C96.2813 55.1696 92.4225 46.2298 85.7926 39.3079C79.1627 32.386 70.1883 27.9274 60.4543 26.7196H60.4543ZM68.1302 102.804H68.1243C64.7724 103.898 61.2835 104.562 57.749 104.777C56.875 104.834 55.9891 104.863 55.1032 104.863C44.3843 104.85 34.1082 100.772 26.5287 93.5241C18.9493 86.2757 14.6855 76.4484 14.6723 66.1977C14.6723 65.7087 14.6842 65.2196 14.7021 64.7363C15.1108 54.7464 19.5445 45.295 27.075 38.3605C34.6055 31.4259 44.649 27.5459 55.1032 27.5327C64.6818 27.5332 73.9491 30.7857 81.2541 36.7108C88.5591 42.6359 93.4273 50.8487 94.9913 59.886C96.5554 68.9233 94.7137 78.1981 89.7945 86.058C84.8752 93.9179 77.1978 99.8525 68.1302 102.804H68.1302Z" fill="#3F3D56"/>
<path d="M55.6978 29.8071H54.5086V37.7675H55.6978V29.8071Z" fill="#3F3D56"/>
<path d="M28.6164 40.0636L27.7756 40.8677L33.6615 46.4966L34.5024 45.6925L28.6164 40.0636Z" fill="#3F3D56"/>
<path d="M17.0507 65.6291V66.7663H25.3747V65.6291H17.0507Z" fill="#3F3D56"/>
<path d="M27.7755 91.5276L28.6164 92.3317L34.5023 86.7029L33.6615 85.8987L27.7755 91.5276Z" fill="#3F3D56"/>
<path d="M75.704 45.6925L76.5449 46.4966L82.4308 40.8677L81.59 40.0636L75.704 45.6925Z" fill="#3F3D56"/>
<path d="M84.8317 65.629V66.7662H93.1557V65.629H84.8317Z" fill="#3F3D56"/>
<path d="M76.5448 85.8987L75.704 86.7029L81.5899 92.3317L82.4308 91.5276L76.5448 85.8987Z" fill="#3F3D56"/>
<path d="M55.6978 94.6277H54.5086V102.588H55.6978V94.6277Z" fill="#3F3D56"/>
<path d="M56.8869 63.9232C56.3723 63.5542 55.7464 63.3546 55.1032 63.3546C54.4599 63.3546 53.8341 63.5542 53.3195 63.9232C52.9672 64.1791 52.6771 64.5051 52.4693 64.8785C52.2059 65.3594 52.0919 65.9023 52.1409 66.4432C52.1899 66.984 52.3998 67.5001 52.7457 67.9305C53.0916 68.3609 53.5592 68.6876 54.0931 68.872C54.627 69.0564 55.205 69.0908 55.7586 68.971C56.3123 68.8513 56.8186 68.5825 57.2176 68.1964C57.6166 67.8103 57.8917 67.323 58.0104 66.7921C58.129 66.2613 58.0863 65.709 57.8872 65.2006C57.6881 64.6922 57.341 64.249 56.8869 63.9232H56.8869ZM55.1032 67.9035C54.6305 67.9021 54.1776 67.722 53.8434 67.4024C53.5092 67.0828 53.3209 66.6497 53.3195 66.1977C53.3218 65.8527 53.4315 65.5161 53.6346 65.231C53.8088 64.9897 54.0452 64.7955 54.3209 64.6671C54.5965 64.5388 54.9022 64.4806 55.2083 64.4982C55.5143 64.5159 55.8104 64.6088 56.068 64.7679C56.3255 64.927 56.5358 65.147 56.6784 65.4065C56.8211 65.6661 56.8912 65.9565 56.8822 66.2496C56.8732 66.5427 56.7852 66.8286 56.6268 67.0796C56.4684 67.3307 56.245 67.5384 55.978 67.6828C55.7111 67.8271 55.4098 67.9031 55.1032 67.9035V67.9035Z" fill="#3F3D56"/>
<path d="M60.4543 16.7292H49.752V26.9641H60.4543V16.7292Z" fill="#3F3D56"/>
<path d="M55.1032 18.435C62.9841 18.435 69.3729 16.2712 69.3729 13.6019C69.3729 10.9327 62.9841 8.7688 55.1032 8.7688C47.2223 8.7688 40.8335 10.9327 40.8335 13.6019C40.8335 16.2712 47.2223 18.435 55.1032 18.435Z" fill="#3F3D56"/>
<path d="M56.8869 44.5908H53.3195V63.9232H56.8869V44.5908Z" fill="#3F3D56"/>
<path d="M111.779 104.267H0V105.405H111.779V104.267Z" fill="#3F3D56"/>
<path d="M74.4834 283.682C74.945 298.794 65.7117 304.332 54.1242 304.656C53.855 304.663 53.5871 304.668 53.3204 304.67C52.783 304.674 52.2508 304.665 51.7239 304.644C41.2442 304.228 32.9489 298.908 32.5197 284.854C32.0755 270.309 50.9528 251.411 52.3692 250.014L52.3717 250.012C52.4255 249.959 52.453 249.932 52.453 249.932C52.453 249.932 74.022 268.571 74.4834 283.682Z" fill="#D0CDE1"/>
<path d="M53.2899 302.366L60.6507 291.897L53.305 303.492L53.3203 304.67C52.783 304.674 52.2508 304.665 51.7239 304.644L52.089 289.502L52.079 289.386L52.0924 289.363L52.1274 287.932L44.0665 276.74L52.1179 286.861L52.1464 287.164L52.4222 275.724L45.4597 264.12L52.442 273.714L52.3691 250.014L52.3693 249.935L52.3717 250.012L52.8339 268.692L59.1793 261.104L52.8546 270.301L52.9931 280.534L58.8322 270.547L53.0146 282.038L53.0917 287.728L61.5833 273.816L53.1175 289.713L53.2899 302.366Z" fill="#3F3D56"/>
<path d="M394.983 283.682C395.445 298.794 386.212 304.332 374.624 304.656C374.355 304.663 374.087 304.668 373.82 304.67C373.283 304.674 372.751 304.665 372.224 304.644C361.744 304.228 353.449 298.908 353.02 284.854C352.575 270.309 371.453 251.411 372.869 250.014L372.872 250.012C372.925 249.959 372.953 249.932 372.953 249.932C372.953 249.932 394.522 268.571 394.983 283.682Z" fill="#D0CDE1"/>
<path d="M373.79 302.366L381.151 291.897L373.805 303.492L373.82 304.67C373.283 304.674 372.751 304.665 372.224 304.644L372.589 289.502L372.579 289.386L372.592 289.363L372.627 287.932L364.566 276.74L372.618 286.861L372.646 287.164L372.922 275.724L365.96 264.12L372.942 273.714L372.869 250.014L372.869 249.935L372.872 250.012L373.334 268.692L379.679 261.104L373.355 270.301L373.493 280.534L379.332 270.547L373.515 282.038L373.592 287.728L382.083 273.816L373.617 289.713L373.79 302.366Z" fill="#3F3D56"/>
</svg>
